<?xml version="1.0" encoding="UTF-8" standalone="no"?>
<!-- Created with Inkscape (http://www.inkscape.org/) -->

<svg
   xmlns:dc="http://purl.org/dc/elements/1.1/"
   xmlns:cc="http://creativecommons.org/ns#"
   xmlns:rdf="http://www.w3.org/1999/02/22-rdf-syntax-ns#"
   xmlns:svg="http://www.w3.org/2000/svg"
   xmlns="http://www.w3.org/2000/svg"
   xmlns:sodipodi="http://sodipodi.sourceforge.net/DTD/sodipodi-0.dtd"
   xmlns:inkscape="http://www.inkscape.org/namespaces/inkscape"
   width="750"
   height="750"
   id="svg4214"
   version="1.1"
   inkscape:version="0.48+devel r13437"
   viewBox="0 0 750 750.00001"
   sodipodi:docname="splash1.svg">
  <defs
     id="defs4216" />
  <sodipodi:namedview
     id="base"
     pagecolor="#ffffff"
     bordercolor="#666666"
     borderopacity="1.0"
     inkscape:pageopacity="0.0"
     inkscape:pageshadow="2"
     inkscape:zoom="0.98994949"
     inkscape:cx="302.07857"
     inkscape:cy="396.46986"
     inkscape:document-units="px"
     inkscape:current-layer="layer1"
     showgrid="false"
     inkscape:window-width="1920"
     inkscape:window-height="1018"
     inkscape:window-x="-8"
     inkscape:window-y="-8"
     inkscape:window-maximized="1"
     units="px" />
  <metadata
     id="metadata4219">
    <rdf:RDF>
      <cc:Work
         rdf:about="">
        <dc:format>image/svg+xml</dc:format>
        <dc:type
           rdf:resource="http://purl.org/dc/dcmitype/StillImage" />
        <dc:title></dc:title>
      </cc:Work>
    </rdf:RDF>
  </metadata>
  <g
     inkscape:label="Layer 1"
     inkscape:groupmode="layer"
     id="layer1"
     transform="translate(0,-302.36218)">
    <path
       style="fill:#34d24e;stroke:#000000;stroke-width:5.30500031;stroke-miterlimit:3.5999999;stroke-dasharray:none;stroke-opacity:1;fill-opacity:1"
       d="m 639.67279,935.34058 c -6.6015,-0.78854 -7.95733,-1.07698 -10.25866,-2.18227 -2.88901,-1.38756 -4.22005,-2.77874 -6.55681,-6.85302 -2.49538,-4.35074 -3.50793,-6.6426 -3.51181,-7.94865 -0.004,-1.34445 1.00454,-5.97434 1.35444,-6.21786 0.135,-0.094 0.34346,-0.57187 0.46322,-1.06195 0.26337,-1.07771 2.73525,-3.52069 5.52536,-5.46096 1.12758,-0.78411 2.52521,-1.82828 3.10584,-2.32047 0.5806,-0.49218 2.1427,-1.66366 3.47131,-2.60331 3.03998,-2.14997 4.18612,-3.81204 4.18612,-6.07044 0,-2.33258 -0.0861,-2.46505 -6.52605,-10.04215 -3.00716,-3.53811 -5.97331,-8.2927 -6.8789,-11.02652 -0.34697,-1.04758 -1.01277,-3.40688 -1.47955,-5.243 -0.46681,-1.83611 -1.14215,-4.08283 -1.50079,-4.99273 -0.9636,-2.44472 -1.41258,-5.40834 -1.58906,-10.48911 -0.13197,-3.79948 -0.0458,-4.96312 0.53039,-7.16303 0.3784,-1.44468 0.78807,-3.38118 0.9104,-4.30341 0.12238,-0.92224 0.35596,-1.75926 0.5191,-1.86015 0.16317,-0.10081 0.29667,-0.50096 0.29667,-0.8892 0,-0.97486 1.59602,-4.51006 3.05687,-6.77101 0.66784,-1.03357 1.48822,-2.41743 1.82313,-3.07517 1.54663,-3.03802 8.48037,-9.08886 12.68896,-11.07348 6.40494,-3.02016 6.19989,-2.93625 15.12355,-6.18969 3.751,-1.36753 8.3462,-2.21326 12.02556,-2.21326 4.69776,0 9.70116,2.14351 13.04227,5.58755 0.78242,0.80653 3.95902,7.91127 4.26395,9.53676 0.31553,1.68195 -0.72649,6.38029 -2.02328,9.12289 -1.22716,2.59533 -4.93022,6.50964 -8.50745,8.9929 -1.27754,0.88681 -2.40045,1.61242 -2.49542,1.61242 -0.0949,0 -0.73826,0.3844 -1.42968,0.85422 -1.36196,0.92543 -2.46212,1.07539 -3.43477,0.46794 -0.8369,-0.52266 -2.48423,0.27705 -4.8068,2.33353 -2.23963,1.98303 -3.01674,3.50037 -3.4731,6.78138 -0.42452,3.0521 -0.26967,3.96061 1.22024,7.15998 0.61261,1.31556 1.37981,2.96739 1.70493,3.67079 0.32512,0.70347 2.10222,2.82643 3.94916,4.71779 4.00664,4.10301 12.25725,13.64347 12.92641,14.94727 0.26092,0.50837 1.33162,2.23119 2.37938,3.82859 1.04774,1.59739 2.26839,3.82698 2.71259,4.95455 0.4442,1.12757 1.15874,2.81896 1.58782,3.75861 0.5545,1.21416 0.8933,2.91027 1.17105,5.86249 0.75563,8.03082 0.56048,9.16797 -2.29508,13.37296 -2.79216,4.11159 -10.12709,9.90534 -15.83147,12.50488 -3.1309,1.42683 -11.22108,4.15281 -14.28493,4.81338 -4.66356,1.00541 -10.32038,1.50848 -13.15511,1.16996 z"
       id="path4843"
       inkscape:connector-curvature="0" />
    <path
       style="fill:#34d24e;stroke:#000000;stroke-width:5.30500031;stroke-miterlimit:3.5999999;stroke-dasharray:none;stroke-opacity:1;fill-opacity:1"
       d="m 642.51777,932.53207 c 0.32583,-0.25919 0.53175,-0.23328 0.73283,0.092 0.22622,0.3661 0.79239,0.3804 2.96377,0.0751 1.47624,-0.20766 3.45289,-0.47992 4.39254,-0.60505 2.81351,-0.37474 2.95142,-0.40682 6.32129,-1.47103 6.77701,-2.14017 14.12957,-5.26129 15.06589,-6.39531 0.26458,-0.32046 1.13893,-0.87433 1.94305,-1.23079 0.80406,-0.35652 1.64831,-0.94662 1.87604,-1.31127 0.22774,-0.36466 0.5726,-0.66304 0.76635,-0.66304 0.42381,0 3.77738,-3.45028 4.98177,-5.12534 0.47291,-0.65782 1.21902,-2.09655 1.65803,-3.19726 0.84233,-2.11223 0.84354,-2.1978 0.14632,-10.47039 -0.31908,-3.78576 -3.4419,-10.30106 -8.46801,-17.66716 -1.23164,-1.80513 -6.57613,-7.831 -11.30641,-12.74789 -4.33664,-4.50781 -4.4863,-4.71459 -6.30702,-8.71309 -1.75266,-3.84905 -1.86304,-4.25021 -1.83213,-6.6585 0.0232,-1.8105 0.29427,-3.31484 0.92345,-5.12534 0.77599,-2.23279 1.18151,-2.83943 3.15026,-4.71235 1.24277,-1.1823 3.05031,-2.60317 4.01672,-3.15741 1.83871,-1.05462 4.14081,-1.36092 4.4132,-0.58712 0.10672,0.3031 0.46248,0.20069 1.22552,-0.35275 0.59132,-0.42896 1.65125,-1.16154 2.35538,-1.6281 0.70413,-0.46649 1.66138,-1.11501 2.1272,-1.44112 1.24285,-0.86998 3.88823,-3.24938 4.2472,-3.82017 0.17078,-0.27146 0.67053,-0.82729 1.11049,-1.23506 0.43999,-0.40777 0.79999,-0.91127 0.79999,-1.11893 0,-0.20766 0.2812,-0.88195 0.62495,-1.4984 1.47383,-2.64352 1.75366,-5.85711 0.74471,-8.55268 -0.45819,-1.22425 -0.93393,-1.96474 -1.26212,-1.96474 -0.39586,0 -0.48777,-0.26594 -0.36979,-1.06979 0.45705,-3.11408 -4.30998,-7.45974 -9.7526,-8.89063 -2.17163,-0.57086 -2.85359,-0.60287 -5.87378,-0.27553 -4.40461,0.47731 -5.46668,0.74818 -11.54437,2.94446 -13.34756,4.82332 -19.58413,8.93817 -23.9982,15.8338 -4.24008,6.62381 -6.30978,13.25487 -6.55883,21.01394 -0.15155,4.72113 0.50983,11.35829 1.22205,12.26376 0.41153,0.52317 1.60332,4.30341 2.32777,7.38353 0.87388,3.71528 3.38705,8.34553 6.68722,12.32044 1.55133,1.86849 3.01281,3.39722 3.24773,3.3973 0.23492,0 0.42711,0.17107 0.42711,0.38011 0,0.20904 0.92257,1.53585 2.05015,2.94845 l 2.05015,2.56833 0,2.36474 c 0,3.54043 -0.46205,4.20594 -5.34195,7.6944 -9.83441,7.03026 -11.02684,8.23071 -12.28133,12.36384 -1.00652,3.3163 -0.54378,5.44739 2.18089,10.04412 3.15435,5.32167 5.30072,6.78065 11.43837,7.77547 1.46241,0.23698 2.72853,0.5435 2.81356,0.68104 0.21527,0.3484 3.31211,-0.0189 3.86459,-0.45865 z"
       id="path4841"
       inkscape:connector-curvature="0" />
    <path
       style="fill:#34d24e;stroke:#000000;stroke-width:5.30500031;stroke-miterlimit:3.5999999;stroke-dasharray:none;stroke-opacity:1;fill-opacity:1"
       d="m 535.04205,912.44646 c -5.2437,-0.61042 -9.88569,-2.05038 -15.56856,-4.82935 -3.5093,-1.71607 -4.41842,-2.34993 -7.10305,-4.95267 -1.69328,-1.64159 -3.30349,-3.11052 -3.5783,-3.26432 -0.27475,-0.15373 -0.49958,-0.48376 -0.49958,-0.7333 0,-0.24954 -0.23778,-0.65107 -0.52841,-0.89226 -0.83398,-0.69215 -2.70398,-4.07144 -4.08226,-7.37707 -1.75068,-4.19875 -2.25784,-5.83352 -2.42447,-7.81503 -0.12993,-1.54426 -0.60291,-5.18166 -1.02191,-7.85814 -0.39813,-2.54351 -0.53118,-12.00972 -0.18139,-12.90815 0.20307,-0.52157 0.53022,-1.9823 0.72703,-3.2461 0.65933,-4.23331 3.57434,-12.73446 5.30871,-15.48185 0.45978,-0.72837 0.83594,-1.47197 0.83594,-1.65242 0,-0.46452 3.56436,-5.64132 5.45175,-7.91795 1.91333,-2.3079 5.21489,-5.42714 7.82956,-7.39717 5.39618,-4.06578 14.99746,-7.25223 23.88932,-7.92848 3.7873,-0.28801 4.71753,-0.24859 7.24921,0.30688 9.93914,2.18074 19.33819,9.00168 23.09346,16.75923 2.14458,4.43014 3.21676,9.77657 3.21676,16.04073 0,5.1244 -0.46142,6.87915 -3.18358,12.10662 -2.73779,5.25751 -7.27307,9.41431 -12.36091,11.3294 -2.43177,0.91527 -4.60846,1.11088 -4.62617,0.41568 -0.007,-0.24663 -0.21644,-0.15562 -0.49736,0.21535 -0.3734,0.4932 -1.06575,0.67996 -2.9789,0.80364 -2.75941,0.17833 -6.85869,1.26192 -7.44452,1.96778 -0.70122,0.84493 -0.81292,2.83333 -0.21078,3.75237 0.6011,0.91737 2.76458,2.1316 5.86455,3.29147 5.51284,2.06265 11.89486,6.25552 13.03734,8.56539 1.0997,2.22328 0.91513,5.54131 -0.41501,7.46068 -1.86902,2.69695 -9.04196,8.34343 -12.18904,9.59505 -4.49652,1.78829 -11.08599,2.40349 -17.60943,1.64399 z"
       id="path4839"
       inkscape:connector-curvature="0" />
    <path
       style="fill:#34d24e;stroke:#000000;stroke-width:5.30500031;stroke-miterlimit:3.5999999;stroke-dasharray:none;stroke-opacity:1;fill-opacity:1"
       d="m 547.62022,910.83593 c 2.43006,-0.44827 5.54899,-1.87357 7.0199,-3.20815 0.40251,-0.36523 0.98519,-0.70115 1.2949,-0.74665 0.66422,-0.0975 5.30495,-4.58112 6.72412,-6.4965 0.82856,-1.11828 0.98738,-1.65938 0.98738,-3.36427 0,-1.24066 -0.2101,-2.38463 -0.53971,-2.93851 -1.15079,-1.93388 -6.28977,-4.95745 -13.73426,-8.08046 -4.74076,-1.98876 -5.38896,-2.70413 -5.34158,-5.8953 0.0224,-1.52706 0.20337,-2.32445 0.63488,-2.80125 0.78959,-0.87244 3.96909,-1.87487 8.2174,-2.59076 1.8793,-0.31667 3.57067,-0.66979 3.7586,-0.78483 0.18793,-0.11504 1.18736,-0.24192 2.221,-0.28206 2.16088,-0.0839 5.38338,-1.38371 7.04291,-2.8408 0.60031,-0.52702 1.22166,-1.01456 1.38084,-1.08322 0.54102,-0.23357 4.56051,-4.83465 4.56051,-5.22043 0,-0.21107 0.35891,-0.91918 0.79762,-1.57359 0.43867,-0.6544 1.07228,-2.0355 1.40798,-3.06915 0.33576,-1.03357 0.78285,-2.18676 0.99358,-2.56267 0.22429,-0.4 0.41976,-2.85764 0.47145,-5.92759 0.10409,-6.17968 -0.56337,-10.20619 -2.34471,-14.14495 -1.57055,-3.47271 -2.67801,-5.01066 -6.06217,-8.41899 -2.30341,-2.31989 -3.68849,-3.37444 -6.30554,-4.80076 -3.85562,-2.10126 -7.8709,-3.57047 -11.41992,-4.1785 -5.86353,-1.00454 -17.35345,1.37341 -24.51264,5.07308 -1.99748,1.03227 -6.13303,4.04038 -8.3078,6.04301 -3.13372,2.88566 -8.56231,10.67485 -10.50197,15.06863 -1.40859,3.1908 -3.29719,9.55462 -3.95785,13.33624 -0.72666,4.15948 -0.89444,14.11657 -0.28497,16.91368 0.18429,0.84573 0.48432,2.61399 0.66676,3.92947 0.68631,4.94882 1.63894,8.25503 3.47629,12.06459 1.59121,3.29939 1.46653,3.14028 6.49718,8.2898 2.43213,2.48958 4.57779,4.35008 5.79549,5.02525 9.03508,5.00964 20.0465,6.98417 29.36433,5.26564 z"
       id="path4837"
       inkscape:connector-curvature="0" />
    <path
       style="fill:#34d24e;stroke:#000000;stroke-width:5.30500031;stroke-miterlimit:3.5999999;stroke-dasharray:none;stroke-opacity:1;fill-opacity:1"
       d="m 545.5369,887.72798 c 0,-0.0828 0.15375,-0.24569 0.34168,-0.36182 0.18794,-0.11613 0.34169,-0.0486 0.34169,0.15068 0,0.19902 -0.15375,0.3619 -0.34169,0.3619 -0.18793,0 -0.34168,-0.0682 -0.34168,-0.15076 z"
       id="path4835"
       inkscape:connector-curvature="0" />
    <path
       style="fill:#34d24e;stroke:#000000;stroke-width:5.30500031;stroke-miterlimit:3.5999999;stroke-dasharray:none;stroke-opacity:1;fill-opacity:1"
       d="m 544.5672,854.01827 c 0.0909,-0.63916 0.38199,-0.85509 1.3674,-1.01434 2.1547,-0.34818 4.72766,-2.32104 4.72766,-3.62506 0,-0.97827 -1.12643,-2.16143 -2.05777,-2.16143 -0.38008,0 -1.37951,0.63466 -2.22099,1.41027 -1.31456,1.2117 -1.52999,1.59987 -1.52999,2.75625 0,1.26671 -0.0553,1.33959 -0.93965,1.23782 -0.66181,-0.0761 -0.97095,-0.32785 -1.04552,-0.85139 -0.11292,-0.79318 1.40979,-3.50283 2.24431,-3.99356 0.27573,-0.16215 0.80844,-0.60193 1.18373,-0.97718 0.93569,-0.93566 2.965,-1.16088 4.28951,-0.47592 2.37543,1.22838 2.86605,3.76616 1.08105,5.5919 -1.34049,1.37108 -3.7223,2.52101 -5.67847,2.74144 -1.46164,0.16476 -1.53107,0.13355 -1.42127,-0.6388 z"
       id="path4833"
       inkscape:connector-curvature="0" />
    <path
       style="fill:#34d24e;stroke:#000000;stroke-width:5.30500031;stroke-miterlimit:3.5999999;stroke-dasharray:none;stroke-opacity:1;fill-opacity:1"
       d="m 375.35701,918.1069 c -3.62587,-0.40102 -9.66176,-1.92452 -11.86559,-2.99504 -3.21451,-1.5614 -6.71806,-4.37303 -8.4575,-6.78727 -6.45161,-8.95435 -7.6215,-12.33909 -7.64239,-22.11066 -0.009,-4.03254 0.13287,-5.97332 0.53925,-7.39666 3.21363,-11.25559 7.87509,-20.16669 13.43662,-25.68652 2.42526,-2.40705 7.02766,-5.33975 10.02757,-6.38965 3.24582,-1.13606 7.69416,-1.58847 9.51462,-0.96774 1.27236,0.43389 4.62059,2.51796 6.20859,3.86443 0.45312,0.38418 0.73119,0.53559 0.61792,0.33642 -0.43518,-0.76516 -0.59625,-9.24577 -0.25449,-13.39735 0.68642,-8.33857 2.10577,-17.6832 3.59302,-23.65565 0.2574,-1.03358 0.5507,-2.41743 0.65185,-3.07525 0.1011,-0.65774 0.47399,-2.27219 0.82863,-3.58775 4.5191,-16.76271 5.72236,-20.16712 7.80262,-22.07561 1.35258,-1.2408 4.50693,-3.50167 5.86499,-4.20361 1.45761,-0.75334 2.57119,-0.52107 5.86922,1.22454 3.0114,1.59391 3.52735,1.99696 5.17208,4.04066 2.98477,3.70882 4.63586,8.21148 7.42187,20.24007 1.06307,4.58968 1.6053,8.16764 2.44248,16.11695 1.05644,10.0309 1.07821,10.58354 1.19182,30.23968 0.0636,11.01215 0.22842,21.02149 0.36612,22.24305 0.28589,2.53589 1.91118,6.40338 3.62169,8.61809 0.62095,0.80399 2.06449,2.4612 3.2079,3.68276 2.56992,2.74558 4.67682,5.83288 6.02131,8.82327 0.5642,1.25496 1.30472,2.81983 1.64559,3.47758 1.19308,2.30231 1.46859,3.88498 1.21215,6.96327 -0.3773,4.5293 -1.41464,5.67182 -7.17627,7.90431 l -3.18104,1.23252 -6.78715,0.0196 c -4.99891,0.0145 -7.59733,-0.13254 -9.86233,-0.55772 -3.75655,-0.705 -7.96325,-2.02578 -10.25074,-3.21831 -2.69457,-1.40484 -2.91462,-1.4142 -4.61282,-0.19605 -1.58665,1.13802 -4.01474,2.61943 -7.02531,4.28614 -2.1819,1.20792 -6.32399,2.56972 -8.72655,2.86897 -2.59081,0.32271 -8.97124,0.38905 -11.41573,0.11868 z"
       id="path4831"
       inkscape:connector-curvature="0" />
    <path
       style="fill:#34d24e;stroke:#000000;stroke-width:5.30500031;stroke-miterlimit:3.5999999;stroke-dasharray:none;stroke-opacity:1;fill-opacity:1"
       d="m 389.24843,915.92311 c 2.78341,-0.82983 10.50775,-5.34744 13.01269,-7.61056 1.12399,-1.01543 1.4227,-1.13389 2.06986,-0.82055 0.41598,0.20142 1.17631,0.45727 1.6897,0.56854 0.51335,0.11127 1.44098,0.64809 2.06141,1.19282 0.69159,0.60722 2.51178,1.4568 4.70451,2.19591 4.57354,1.54151 9.33975,2.07942 16.24489,1.83336 l 5.15123,-0.18356 2.6478,-1.411 c 3.786,-2.01758 3.90361,-2.10656 4.53427,-3.43185 0.68243,-1.43416 0.83363,-6.62809 0.22965,-7.89001 -0.21752,-0.45444 -0.98058,-2.13327 -1.69568,-3.73067 -1.67722,-3.74649 -4.01483,-7.21484 -6.42273,-9.5295 -2.49848,-2.40182 -4.71021,-5.53078 -5.79296,-8.19543 -1.03597,-2.54954 -1.4461,-6.95195 -1.34093,-14.39406 0.23481,-16.6187 -0.0318,-34.34016 -0.54179,-35.99816 -0.18192,-0.5914 -0.41317,-2.07477 -0.51397,-3.29626 -0.1008,-1.22157 -0.33537,-3.68175 -0.52129,-5.46706 -0.18591,-1.78539 -0.44077,-4.32243 -0.56638,-5.63792 -0.24093,-2.52304 -2.92388,-14.07556 -4.39466,-18.92277 -1.23778,-4.07942 -2.36922,-6.37579 -4.19361,-8.51124 -1.9925,-2.33229 -4.23243,-3.99262 -6.35282,-4.70908 -1.61241,-0.5448 -1.66769,-0.53921 -3.48258,0.34869 -2.44706,1.19725 -5.15086,3.67325 -6.13507,5.61825 -1.10855,2.19083 -5.63644,17.74533 -6.32727,21.73599 -0.19538,1.12858 -0.51434,2.58931 -0.7088,3.24603 -0.19449,0.6568 -0.74191,3.11612 -1.21652,5.46525 -2.17326,10.75702 -3.06394,23.85554 -2.07014,30.44379 0.30042,1.99159 0.63613,3.85536 0.74598,4.1417 0.10989,0.28634 -0.0507,0.77104 -0.3568,1.07719 -0.93222,0.93218 -1.94442,0.61979 -2.36579,-0.73018 -0.38325,-1.22795 -3.45057,-4.02085 -5.58502,-5.08534 -1.65033,-0.82302 -2.35117,-0.97021 -4.51616,-0.94808 -6.16675,0.0632 -12.54248,3.70628 -17.89352,10.22456 -1.85415,2.25862 -6.31305,10.64821 -7.61966,14.33671 -1.15801,3.26904 -2.25054,7.7635 -2.67703,11.01265 -0.41157,3.13557 -0.39349,3.98493 0.17568,8.25031 0.69392,5.20025 1.45948,7.45495 3.8336,11.29064 0.77042,1.24472 1.68438,2.80125 2.03103,3.459 1.13563,2.15483 2.92568,3.97679 5.81251,5.91598 3.83802,2.5782 5.33925,3.18644 10.25609,4.15506 5.13478,1.01165 5.83563,1.06798 11.20667,0.90191 3.15145,-0.0975 4.95599,-0.33628 6.8836,-0.91106 z"
       id="path4829"
       inkscape:connector-curvature="0" />
    <path
       style="fill:#34d24e;stroke:#000000;stroke-width:5.30500031;stroke-miterlimit:3.5999999;stroke-dasharray:none;stroke-opacity:1;fill-opacity:1"
       d="m 378.8194,886.08996 c -0.73218,-0.80908 -0.9674,-2.00959 -0.54753,-2.79414 0.1796,-0.33554 0.99791,-0.86649 1.81845,-1.1799 1.86064,-0.71058 3.41961,-0.5808 3.58652,0.29854 0.15329,0.80719 -0.48759,1.22482 -1.88982,1.23157 -1.13435,0.007 -1.74782,0.47803 -1.12232,0.86461 0.632,0.39064 -0.23525,2.18923 -1.06587,2.21064 -0.11183,0 -0.46254,-0.28125 -0.77943,-0.63132 z"
       id="path4827"
       inkscape:connector-curvature="0" />
    <path
       style="fill:#34d24e;stroke:#000000;stroke-width:5.30500031;stroke-miterlimit:3.5999999;stroke-dasharray:none;stroke-opacity:1;fill-opacity:1"
       d="m 252.66293,910.33259 c -3.19855,-0.79471 -7.73376,-5.87548 -9.78633,-10.96352 -1.06535,-2.64091 -2.88126,-9.45626 -3.14916,-11.81933 -0.1046,-0.9226 -0.27138,-2.44632 -0.37063,-3.38597 -0.63831,-6.04322 -0.86269,-7.81104 -1.30107,-10.25069 -0.27015,-1.50347 -0.49775,-3.50232 -0.50579,-4.44197 -0.0229,-2.68657 -0.64627,-9.30116 -0.91786,-9.74057 -0.13514,-0.2187 -0.29133,-1.75215 -0.34706,-3.40761 -0.0557,-1.65553 -0.25151,-3.29532 -0.43503,-3.64407 -0.29106,-0.55301 -0.50418,-1.71092 -0.96578,-5.24685 -0.1819,-1.39336 0.96261,-4.11702 2.09203,-4.97843 0.56546,-0.43129 2.23286,-1.26657 3.7053,-1.85623 2.40327,-0.9623 2.91,-1.04925 4.9525,-0.84979 4.71166,0.4601 11.55293,3.35657 14.84083,6.28346 2.24959,2.00256 7.81218,10.40638 9.76677,14.75537 1.17804,2.62118 2.03162,6.69226 2.79551,13.3329 0.74093,6.44097 -0.29591,17.49021 -2.10257,22.40636 -1.71532,4.66757 -5.55587,9.85453 -8.74802,11.81477 -2.47206,1.51806 -7.33653,2.53559 -9.52364,1.99217 z"
       id="path4825"
       inkscape:connector-curvature="0" />
    <path
       style="fill:#34d24e;stroke:#000000;stroke-width:5.30500031;stroke-miterlimit:3.5999999;stroke-dasharray:none;stroke-opacity:1;fill-opacity:1"
       d="m 258.04686,908.5504 c 2.28897,-0.4908 4.43208,-1.6019 4.64257,-2.40677 0.0898,-0.34324 0.36853,-0.62413 0.61948,-0.62413 0.53539,0 1.95105,-2.00858 3.61239,-5.12534 2.21873,-4.16254 3.09497,-6.94912 3.76053,-11.9592 0.41299,-3.10893 0.51316,-12.44006 0.16138,-15.03445 -1.01294,-7.47041 -2.37009,-12.22311 -4.35601,-15.25474 -0.63337,-0.96687 -1.91223,-2.96572 -2.84189,-4.44198 -3.56255,-5.65693 -7.51742,-8.76245 -13.68994,-10.74983 -3.81007,-1.22672 -5.85158,-1.22272 -9.12208,0.0181 -3.42274,1.2985 -3.52186,1.45629 -3.48115,5.54167 0.0194,1.94216 0.20895,5.0688 0.42132,6.94811 0.21237,1.8793 0.6192,6.41527 0.90408,10.07989 0.28488,3.66462 0.75004,8.20059 1.03369,10.0799 1.0339,6.84975 1.17618,7.9014 1.38691,10.25075 0.23337,2.60165 1.83791,9.45423 2.72272,11.62794 2.75908,6.77833 6.04615,10.38503 10.0681,11.04698 1.03362,0.17013 1.98706,0.32727 2.11876,0.34927 0.13169,0.0218 1.04931,-0.13377 2.03914,-0.34608 z"
       id="path4823"
       inkscape:connector-curvature="0" />
    <path
       style="fill:#34d24e;stroke:#000000;stroke-width:5.30500031;stroke-miterlimit:3.5999999;stroke-dasharray:none;stroke-opacity:1;fill-opacity:1"
       d="m 131.90524,906.64402 c -2.88125,-0.38062 -3.21009,-0.53334 -4.91509,-2.28207 -1.15185,-1.18135 -2.97133,-3.93041 -5.33564,-8.06166 -1.97326,-3.44796 -3.64626,-6.43597 -3.71776,-6.64 -0.0715,-0.2041 -0.32473,-0.60178 -0.56271,-0.88362 -0.49992,-0.5922 -1.9415,-5.04985 -2.72344,-8.4216 -0.29543,-1.27382 -0.67305,-2.40008 -0.83917,-2.50279 -0.16611,-0.10263 -0.38404,-1.7422 -0.48428,-3.64335 -0.19475,-3.69358 -0.78097,-7.80821 -1.23922,-8.69785 -0.15386,-0.29875 -0.15082,-0.75167 0.007,-1.00665 0.15757,-0.25498 0.14886,-0.72067 -0.0193,-1.03502 -0.1682,-0.31429 -0.23525,-0.642 -0.14898,-0.7283 0.0863,-0.0863 0.004,-1.29814 -0.18154,-2.69303 -0.18611,-1.39489 -0.57106,-4.97495 -0.85546,-7.95562 -0.28439,-2.98074 -0.60158,-5.55619 -0.70488,-5.72335 -0.10329,-0.16708 -1.58338,-0.30383 -3.28908,-0.30383 -1.98623,0 -4.65103,-0.31602 -7.411609,-0.8789 -5.645206,-1.15108 -8.899784,-2.6857 -11.554764,-5.44855 -2.244426,-2.33549 -2.844756,-3.79802 -2.799341,-6.81956 0.02134,-1.41725 0.177849,-2.66269 0.347881,-2.76779 0.170032,-0.1051 0.631366,-0.82272 1.025199,-1.59464 1.394825,-2.73411 5.736928,-6.19208 10.48423,-8.34945 8.047824,-3.65729 10.857114,-5.06329 11.361494,-5.68619 0.30892,-0.38149 1.1479,-2.31966 1.86441,-4.30697 0.71651,-1.98731 1.59366,-3.9977 1.94923,-4.46753 0.35556,-0.46982 1.17265,-1.5709 1.81575,-2.44675 1.46107,-1.99007 4.65203,-3.70367 6.89651,-3.70367 1.76178,0 4.22613,0.53515 5.89007,1.27912 1.80022,0.80487 5.1687,3.58391 7.3351,6.05149 l 1.94517,2.21551 2.10275,-0.18472 c 1.15652,-0.10154 2.21324,-0.25295 2.34826,-0.33642 0.13504,-0.0835 1.40501,-0.29868 2.82217,-0.47839 2.04874,-0.25977 3.68131,-0.18661 7.96829,0.35725 2.96541,0.37619 5.95648,0.83586 6.64684,1.02153 1.16164,0.31246 3.18019,1.65698 5.61835,3.74228 2.11917,1.81245 3.53592,5.30222 3.54398,8.72957 0.006,2.4154 -2.07671,6.60501 -4.35188,8.75548 -2.94954,2.78789 -10.24762,7.7672 -13.18008,8.99254 -1.32997,0.55569 -7.32419,4.76359 -8.00377,5.61854 -0.83466,1.05012 -0.40543,4.57342 1.12235,9.21275 2.84559,8.64109 3.63792,14.90554 3.69959,29.25031 0.0496,11.53358 -0.11209,12.79927 -2.05926,16.12188 -2.48921,4.24753 -8.09292,7.27117 -12.41708,6.70002 z"
       id="path4821"
       inkscape:connector-curvature="0" />
    <path
       style="fill:#34d24e;stroke:#000000;stroke-width:5.30500031;stroke-miterlimit:3.5999999;stroke-dasharray:none;stroke-opacity:1;fill-opacity:1"
       d="m 133.61579,905.26328 c 0.002,-0.14103 0.70311,-0.27596 1.55991,-0.29998 0.8568,-0.024 2.12438,-0.33149 2.81686,-0.68337 1.27457,-0.64758 3.48004,-2.57892 3.48004,-3.04744 0,-0.14031 0.52349,-1.04374 1.16332,-2.00771 1.33945,-2.01794 1.76823,-3.71303 2.08117,-8.22715 0.27786,-4.00801 0.2963,-8.57788 0.0363,-8.99856 -0.13526,-0.21891 -0.3034,-2.48879 -0.37364,-5.04434 -0.0703,-2.55549 -0.28614,-5.3616 -0.4798,-6.23586 -0.19367,-0.87418 -0.67971,-3.71789 -1.08009,-6.31925 -0.40039,-2.60135 -1.00561,-5.44593 -1.34494,-6.32128 -2.62748,-6.77775 -3.3661,-11.17001 -2.24348,-13.34088 0.77925,-1.50696 5.55001,-4.89119 9.75834,-6.92241 1.22154,-0.58959 2.29787,-1.1733 2.39183,-1.29712 0.094,-0.12383 0.97551,-0.71414 1.95897,-1.31179 2.23877,-1.36056 6.78871,-4.71423 7.96096,-5.86793 3.10646,-3.05739 4.29508,-8.13577 2.74862,-11.74356 -0.87026,-2.0302 -5.2158,-5.79629 -7.28705,-6.31533 -5.8595,-1.46827 -12.31756,-1.62686 -17.66031,-0.43361 l -3.5657,0.7963 -1.21798,-1.33522 c -0.66989,-0.73432 -1.83937,-2.02259 -2.59884,-2.86273 -5.32783,-5.89363 -11.34011,-7.4413 -15.53285,-3.9985 -0.63065,0.51788 -2.42028,2.87775 -2.96271,3.90676 -0.22002,0.41742 -0.6244,1.18766 -0.89863,1.71171 -0.27424,0.52405 -0.8236,1.9696 -1.22081,3.21228 -1.13675,3.55633 -2.2684,5.33946 -3.56156,5.61179 -0.60197,0.12688 -1.55576,0.42207 -2.11956,0.65608 -0.56379,0.234 -1.94764,0.77837 -3.07522,1.20973 -3.405465,1.30278 -9.828698,4.69362 -11.149793,5.886 -2.464757,2.22451 -4.738839,5.81089 -4.738839,7.47346 0,0.34782 0.405177,1.48809 0.900393,2.534 0.962161,2.03209 3.196461,4.1817 5.933423,5.70847 2.849459,1.58956 10.071276,3.35411 13.698376,3.34707 l 2.25172,-0.007 0.45269,-1.37166 c 0.5358,-1.62346 1.27939,-2.39515 1.68128,-1.74489 0.14523,0.23495 0.19143,0.80712 0.10268,1.27136 -0.0993,0.51925 0.0736,1.10369 0.44926,1.51886 0.53185,0.58763 0.55175,0.78469 0.15429,1.52735 -0.37607,0.70275 -0.38323,1.73872 -0.0406,5.89087 0.22861,2.77098 0.42512,5.26884 0.4367,5.55068 0.0306,0.74607 0.63263,5.27754 0.82485,6.20907 0.0903,0.4376 0.38305,3.02516 0.65057,5.75013 0.26753,2.72504 0.73154,5.54109 1.03113,6.25799 0.29959,0.7169 0.9322,3.17374 1.40578,5.45965 0.4736,2.28592 0.97592,4.23643 1.1163,4.33449 0.14037,0.098 0.99352,1.71585 1.8959,3.59515 2.40693,5.0127 3.66453,7.45183 4.14002,8.02973 0.23194,0.28191 0.76627,1.20444 1.1874,2.0501 1.05309,2.11483 3.57389,5.01029 4.88782,5.6144 0.94848,0.43607 1.63408,0.59496 3.56635,0.82657 0.23492,0.0283 0.42806,-0.0639 0.4292,-0.20505 z"
       id="path4819"
       inkscape:connector-curvature="0" />
    <path
       style="fill:#34d24e;stroke:#000000;stroke-width:5.30500031;stroke-miterlimit:3.5999999;stroke-dasharray:none;stroke-opacity:1;fill-opacity:1"
       d="m 248.47103,816.97153 c -2.16019,-0.62174 -5.85787,-3.3597 -5.85787,-4.33753 0,-0.2756 -0.36898,-1.28471 -0.81995,-2.24251 -0.71776,-1.52438 -0.78265,-1.97482 -0.52068,-3.61403 0.38139,-2.38644 2.09778,-5.88172 3.78959,-7.71711 1.23048,-1.33494 1.47636,-1.44636 3.79,-1.71745 1.36079,-0.15939 3.08376,-0.26086 3.82884,-0.22552 1.64578,0.0783 5.10136,1.72587 6.51085,3.10436 3.64028,3.56024 3.84155,10.56053 0.39673,13.79793 -1.68067,1.57954 -3.01691,2.21326 -6.04114,2.86491 -2.51503,0.54197 -3.44012,0.55787 -5.07637,0.087 z"
       id="path4817"
       inkscape:connector-curvature="0" />
    <path
       style="fill:#34d24e;stroke:#000000;stroke-width:5.30500031;stroke-miterlimit:3.5999999;stroke-dasharray:none;stroke-opacity:1;fill-opacity:1"
       d="m 256.54605,814.46279 c 1.18603,-0.53239 1.63641,-1.01282 2.39184,-2.55091 1.19777,-2.43892 1.25893,-5.9027 0.14281,-8.08794 -1.78773,-3.50001 -6.70101,-5.63771 -10.56434,-4.59622 -1.64649,0.44384 -3.08758,2.22923 -4.42699,5.48463 -1.10777,2.69244 -1.04826,4.4194 0.19329,5.60888 0.6102,0.58458 0.92463,1.17997 0.8248,1.56169 -0.20441,0.78171 1.70468,2.2883 3.73192,2.9451 1.98756,0.64396 5.86816,0.46003 7.70667,-0.36523 z"
       id="path4815"
       inkscape:connector-curvature="0" />
    <path
       style="fill:#34d24e;stroke:#000000;stroke-width:5.30500031;stroke-miterlimit:3.5999999;stroke-dasharray:none;stroke-opacity:1;fill-opacity:1"
       d="m 488.11822,755.14917 c -0.5638,-0.16847 -2.25516,-1.11567 -3.75861,-2.10475 -3.03006,-1.99355 -3.81576,-3.12932 -4.15682,-6.00889 -0.18771,-1.58513 -0.26996,-1.71041 -1.08747,-1.65655 -0.73896,0.0486 -0.95549,-0.15387 -1.31628,-1.23129 -0.23746,-0.7092 -0.58399,-2.16993 -0.77001,-3.24603 -0.18596,-1.07611 -0.80918,-4.49359 -1.38486,-7.59446 -0.57571,-3.10087 -1.19212,-7.25237 -1.36985,-9.22567 -0.3298,-3.66157 -0.79836,-7.44319 -1.37598,-11.10498 -0.1779,-1.12757 -0.3924,-2.66515 -0.4767,-3.41689 -0.25351,-2.26015 -0.85059,-6.44583 -1.02362,-7.17551 -0.0891,-0.37583 -0.25769,-2.14408 -0.37461,-3.92947 -0.11694,-1.78531 -0.35962,-4.01483 -0.53932,-4.95448 -0.17973,-0.93965 -0.47818,-3.70737 -0.66324,-6.1505 -0.18501,-2.44305 -0.48091,-5.28763 -0.65755,-6.32128 -1.07258,-6.27679 -0.32242,-15.14419 1.60043,-18.91747 0.77074,-1.51254 3.07087,-3.85028 4.76533,-4.84328 2.17296,-1.27346 5.79215,-2.20883 7.81346,-2.01932 2.24869,0.21078 5.24051,1.36397 6.44293,2.48341 1.93887,1.80498 5.22118,7.548 6.28449,10.99581 0.37671,1.22157 0.97978,3.21991 1.34011,4.44075 l 0.65512,2.21979 1.85055,-3.53862 c 1.48611,-2.84175 2.25612,-3.89173 3.91048,-5.33198 3.42439,-2.9814 6.77775,-5.4397 8.39168,-6.15195 0.83996,-0.37068 1.60404,-0.77779 1.69802,-0.90467 0.0939,-0.12687 0.93965,-0.64017 1.87929,-1.14063 6.38031,-3.39817 17.24458,-1.80201 25.62684,3.76522 3.15597,2.09604 10.56902,8.85913 12.35995,11.27627 2.77576,3.7462 4.6824,7.03165 6.07379,10.46618 0.70862,1.74902 1.42676,3.48766 1.59597,3.86349 0.65354,1.45194 3.8335,10.71086 4.45945,12.98429 0.96467,3.50363 1.42229,11.4546 0.86538,15.03437 -0.11697,0.75174 -0.5359,2.75066 -0.93098,4.44198 -0.39511,1.69139 -0.84876,3.92091 -1.00813,4.95455 -0.32051,2.07855 -4.9763,12.10669 -6.04314,13.01637 -0.68467,0.58385 -2.02418,1.23114 -4.8278,2.33309 -1.41288,0.55533 -2.56694,0.70964 -5.29621,0.70812 -1.91935,0 -4.05869,-0.15998 -4.75419,-0.35312 -1.79488,-0.49849 -3.65229,-2.83536 -5.23429,-6.58541 -0.7284,-1.72674 -1.73235,-3.75447 -2.23094,-4.50621 -0.81492,-1.22868 -2.00641,-3.36536 -4.7635,-8.54231 -3.32496,-6.24318 -7.22158,-10.78104 -12.13359,-14.13014 -2.97184,-2.02621 -5.31598,-3.12526 -6.66606,-3.12526 -1.8549,0 -4.43341,2.09793 -5.77494,4.69848 -0.67349,1.30555 -1.73918,7.93008 -1.73918,10.81088 0,1.5042 0.17109,4.4869 0.38015,6.62823 0.48821,4.99985 -0.0899,15.75643 -1.03951,19.34048 -0.90119,3.40129 -1.19556,4.06244 -2.43986,5.47954 -1.58126,1.80099 -3.45169,2.76329 -7.30691,3.75913 -3.53405,0.91287 -5.11015,1.03038 -6.84927,0.51069 z"
       id="path4813"
       inkscape:connector-curvature="0" />
    <path
       style="fill:#34d24e;stroke:#000000;stroke-width:5.30500031;stroke-miterlimit:3.5999999;stroke-dasharray:none;stroke-opacity:1;fill-opacity:1"
       d="m 494.95204,752.52763 c 1.12758,-0.29497 2.75184,-0.88427 3.60946,-1.30961 1.75607,-0.87077 3.97977,-3.14652 4.22117,-4.31996 0.088,-0.42766 0.32283,-1.54623 0.52194,-2.48588 0.74997,-3.53992 1.31521,-9.67096 1.14975,-12.47178 -0.0943,-1.59739 -0.218,-3.67318 -0.27475,-4.61283 -0.49745,-8.23565 -0.5057,-10.81741 -0.0448,-14.0093 0.72302,-5.00688 1.74512,-6.9759 4.82656,-9.29803 2.1581,-1.62621 3.57087,-2.23743 4.66587,-2.01845 1.83515,0.36705 6.56366,2.78114 8.76976,4.47725 1.17815,0.9059 4.85592,4.62764 6.083,6.15587 1.4596,1.81775 4.84863,7.02395 6.29914,9.67677 0.48089,0.87941 1.7332,3.13665 2.78287,5.01589 1.04968,1.8793 2.41423,4.62495 3.03231,6.10143 1.07373,2.56477 2.24204,4.11753 3.93037,5.22376 0.55423,0.3632 1.73079,0.50641 4.13231,0.50292 2.79736,-0.007 3.90676,-0.18 6.6501,-1.05469 l 3.29262,-1.04991 2.23474,-4.58141 c 1.39448,-2.85873 2.50916,-5.71456 2.96465,-7.59525 0.40144,-1.65764 0.80513,-3.32137 0.89703,-3.69728 0.85191,-3.48323 1.20639,-15.49839 0.5112,-17.32689 -0.18471,-0.4858 -0.24687,-0.97232 -0.13812,-1.08105 0.10873,-0.10872 0.043,-0.39361 -0.14608,-0.63306 -0.18911,-0.23945 -0.34949,-0.66602 -0.35641,-0.94793 -0.007,-0.28191 -0.6456,-2.10627 -1.41927,-4.05417 -0.7737,-1.94797 -1.37576,-3.71622 -1.3379,-3.92947 0.0378,-0.21325 -0.18867,-0.97972 -0.50338,-1.70315 -0.31468,-0.72343 -0.86822,-2.26101 -1.23008,-3.41689 -0.63637,-2.03267 -1.09918,-2.99657 -3.71612,-7.73947 -1.19535,-2.16644 -4.41154,-7.0368 -5.50667,-8.33879 -0.30102,-0.3579 -2.7528,-2.49176 -5.44836,-4.74181 -7.25588,-6.05672 -11.19818,-7.99547 -17.92061,-8.81304 -5.4895,-0.66762 -7.65951,-0.26435 -12.20168,2.26755 -1.97328,1.09991 -5.2095,3.2739 -7.19161,4.83116 -3.06459,2.40763 -3.84567,3.2313 -5.21981,5.50444 -1.76152,2.9139 -2.84358,5.44057 -3.46644,8.09462 -0.31168,1.3279 -0.56415,1.7324 -1.13344,1.81601 -0.56419,0.0829 -0.78091,-0.1133 -0.94328,-0.85422 -0.30072,-1.3721 -1.70854,-6.21669 -2.92324,-10.05914 -0.94634,-2.99374 -2.96577,-6.92401 -5.0362,-9.80161 -1.08816,-1.51233 -3.91424,-3.06095 -6.07988,-3.33147 -3.55684,-0.44442 -8.05033,1.90348 -10.21965,5.33997 -1.62129,2.56826 -2.6521,9.64927 -2.18522,15.01115 0.17184,1.97323 0.46919,5.66347 0.66078,8.20059 0.42616,5.64307 0.59036,7.31799 0.83241,8.49027 0.10292,0.49842 0.33986,2.52071 0.52656,4.49394 0.1867,1.9733 0.50409,4.89475 0.70531,6.49214 0.20127,1.5974 0.42003,3.36566 0.48624,3.92948 0.0661,0.56374 0.43643,3.17773 0.82282,5.8087 0.38641,2.63104 0.78955,6.0049 0.89583,7.49741 0.29446,4.1335 1.35876,10.43976 3.10335,18.38834 0.68409,3.11684 1.05801,4.01222 1.67535,4.01222 0.28658,0 0.52101,0.17739 0.52101,0.39419 0,0.58509 1.70531,4.12429 2.32883,4.83313 0.87421,0.99387 4.53411,3.08236 5.85164,3.33916 1.41572,0.27595 2.81349,0.1223 5.65802,-0.62182 z"
       id="path4811"
       inkscape:connector-curvature="0" />
    <path
       style="fill:#34d24e;stroke:#000000;stroke-width:5.30500031;stroke-miterlimit:3.5999999;stroke-dasharray:none;stroke-opacity:1;fill-opacity:1"
       d="m 330.67848,741.67197 c -5.65651,-1.03546 -10.1325,-2.91084 -15.30153,-6.41121 -2.69066,-1.82204 -9.31956,-8.27963 -10.83402,-10.554 -0.66697,-1.00164 -1.76929,-2.66683 -2.4496,-3.70048 -1.35976,-2.06591 -3.16891,-6.96276 -3.50625,-9.49052 -0.49876,-3.73698 -1.27354,-14.67952 -1.2998,-18.35728 -0.0243,-3.4084 0.58434,-7.02816 1.7982,-10.69358 0.57855,-1.74699 1.05189,-3.37269 1.05189,-3.61257 0,-1.24516 3.20631,-6.84105 5.34466,-9.32794 5.78443,-6.72724 17.33258,-15.11633 23.60916,-17.1506 2.91118,-0.94364 8.41906,-1.53519 12.36389,-1.32797 5.4436,0.28591 12.87523,3.0902 17.7258,6.68877 1.18356,0.87811 2.54719,1.89107 3.03027,2.25108 1.10411,0.82286 2.96879,3.71535 3.87145,6.00547 0.39566,1.00382 0.95915,3.96468 1.32108,6.94165 1.17584,9.67176 0.21525,14.15083 -4.35744,20.31802 -4.63728,6.25429 -13.15108,11.00924 -19.72178,11.01454 -2.48003,0 -4.25363,0.35253 -6.36369,1.25771 -1.05907,0.45436 -1.39202,0.85937 -1.96472,2.39007 -1.04189,2.7847 -0.92626,4.59926 0.38851,6.09671 2.43353,2.77163 5.97902,4.48959 12.02551,5.82692 4.57235,1.01137 5.90115,1.62396 8.74657,4.03232 3.61365,3.05863 4.27294,6.07748 2.08185,9.53248 -1.87722,2.96006 -6.05254,5.50081 -11.33303,6.89643 -7.08588,1.8727 -11.47341,2.24418 -16.22698,1.37398 z"
       id="path4807"
       inkscape:connector-curvature="0" />
    <path
       style="fill:#34d24e;stroke:#000000;stroke-width:5.30500031;stroke-miterlimit:3.5999999;stroke-dasharray:none;stroke-opacity:1;fill-opacity:1"
       d="m 341.14031,739.92259 c 6.25509,-1.17961 9.51684,-2.41097 12.87599,-4.86078 2.88889,-2.10685 4.15282,-6.08981 2.59956,-8.1918 -2.1517,-2.91187 -6.09717,-4.99651 -11.37526,-6.01027 -3.82043,-0.73374 -6.1643,-1.66134 -8.94523,-3.53992 -4.15949,-2.80989 -4.8183,-4.95848 -3.05376,-9.95926 0.57286,-1.62353 0.87387,-1.9794 2.39046,-2.82637 0.95429,-0.53297 2.5349,-1.12074 3.51247,-1.30612 0.97758,-0.18545 2.04312,-0.57754 2.36789,-0.8715 0.47498,-0.42983 0.83617,-0.46649 1.84663,-0.18748 1.2751,0.3521 4.22406,0.20563 5.4693,-0.27167 3.08494,-1.1823 5.63055,-2.71611 8.05805,-4.85519 3.38711,-2.98467 5.44995,-5.69388 7.20864,-9.4673 1.81431,-3.89282 2.19844,-6.87828 1.64897,-12.81611 -0.49187,-5.31551 -1.53155,-9.18858 -3.06519,-11.41846 -2.13331,-3.10189 -8.75803,-7.45038 -14.06761,-9.23402 -5.38066,-1.80752 -8.91532,-2.14525 -14.62869,-1.39751 -5.63865,0.73788 -11.48517,3.71311 -18.58705,9.45874 -9.33392,7.55134 -11.98682,11.01976 -14.54189,19.01197 -1.94581,6.08648 -2.56281,10.51299 -2.28888,16.42092 0.78363,16.90113 3.01053,22.9373 11.60165,31.44731 5.88164,5.82598 12.23033,9.8165 17.3063,10.8778 6.26476,1.30982 6.70643,1.30975 13.66765,0 z"
       id="path4805"
       inkscape:connector-curvature="0" />
    <path
       style="fill:#34d24e;stroke:#000000;stroke-width:5.30500031;stroke-miterlimit:3.5999999;stroke-dasharray:none;stroke-opacity:1;fill-opacity:1"
       d="m 341.9416,690.75194 c -0.11128,-0.29004 -0.12696,-0.60266 -0.0348,-0.69484 0.0921,-0.0921 -0.3411,-0.67603 -0.96272,-1.2977 -3.39323,-3.39323 -0.64078,-8.15537 5.00983,-8.66773 1.82288,-0.16534 2.03434,-0.10829 2.84571,0.7672 1.85482,2.00139 1.77181,4.8525 -0.20092,6.90064 -1.24604,1.29371 -4.96411,3.51967 -5.87888,3.51967 -0.31672,0 -0.66691,-0.23728 -0.77818,-0.52724 z"
       id="path4803"
       inkscape:connector-curvature="0" />
    <path
       style="fill:#34d24e;stroke:#000000;stroke-width:5.30500031;stroke-miterlimit:3.5999999;stroke-dasharray:none;stroke-opacity:1;fill-opacity:1"
       d="m 345.46451,687.98502 c 1.54668,-0.73395 2.85131,-2.47535 2.85131,-3.80594 0,-1.51654 -0.53794,-2.71669 -1.33039,-2.96826 -1.95933,-0.62181 -5.84512,1.83576 -5.84512,3.69685 0,1.14477 0.68222,2.61289 1.2142,2.61289 0.23163,0 0.50964,0.23067 0.61782,0.51258 0.25468,0.6637 1.02348,0.64889 2.49218,-0.0479 z"
       id="path4801"
       inkscape:connector-curvature="0" />
    <path
       style="fill:#34d24e;stroke:#000000;stroke-width:5.30500031;stroke-miterlimit:3.5999999;stroke-dasharray:none;stroke-opacity:1;fill-opacity:1"
       d="m 169.49127,727.18327 c -1.55318,-0.30724 -5.88352,-2.59054 -6.7339,-3.55059 -0.95742,-1.08097 -3.04153,-5.89529 -3.81869,-8.82131 -0.91607,-3.44898 -1.7483,-8.48221 -1.7483,-10.5736 0,-0.95359 -0.31807,-4.29783 -0.70683,-7.43158 -0.86531,-6.9754 -0.98954,-8.17519 -1.13835,-10.99407 -0.0645,-1.22157 -0.50569,-3.83548 -0.98044,-5.80871 -0.95324,-3.96213 -1.90041,-9.73839 -2.07307,-12.64256 -0.0743,-1.25016 -0.48759,-2.65456 -1.23443,-4.19498 -1.37313,-2.83217 -1.40765,-4.29115 -0.15459,-6.53308 0.81119,-1.45136 1.25354,-1.81732 3.39004,-2.80444 5.84661,-2.70131 11.83343,-1.99972 17.41954,2.04152 0.5638,0.40785 1.42472,0.94423 1.91316,1.19188 0.92821,0.47063 2.43454,1.85057 5.19027,4.75474 l 1.63636,1.72448 2.10495,-0.8249 c 4.72666,-1.85237 18.04925,-3.02255 22.52903,-1.97881 3.34179,0.77859 8.16598,2.34739 9.83201,3.1974 4.19854,2.14191 9.24381,9.28294 9.24381,13.08358 0,1.85572 -0.8422,4.76598 -1.90519,6.58352 -1.81549,3.10407 -4.45367,4.64993 -8.30762,4.86767 -2.45887,0.13893 -2.85672,0.0523 -7.29983,-1.59688 -4.50527,-1.67187 -4.84161,-1.7438 -8.14895,-1.7438 -2.4379,0 -3.7838,0.15852 -4.58873,0.54045 -1.85602,0.88079 -4.40444,3.84796 -5.2658,6.13119 -0.71309,1.89012 -0.75212,2.37084 -0.52642,6.48343 0.99975,18.21669 0.83558,22.0677 -1.04966,24.6226 -1.03626,1.4044 -4.27813,3.08127 -7.55133,3.9061 -2.72118,0.68562 -7.53537,0.86366 -10.02704,0.37075 z"
       id="path4799"
       inkscape:connector-curvature="0" />
    <path
       style="fill:#34d24e;stroke:#000000;stroke-width:5.30500031;stroke-miterlimit:3.5999999;stroke-dasharray:none;stroke-opacity:1;fill-opacity:1"
       d="m 179.26624,725.47468 c 2.95684,-0.94263 5.48851,-2.78659 6.60727,-4.81251 0.74835,-1.35512 0.83617,-1.92278 0.84361,-5.45334 0.004,-2.16739 -0.20397,-7.95483 -0.46342,-12.86089 l -0.47174,-8.92018 1.07279,-2.29251 c 1.17192,-2.50432 3.82219,-5.34135 6.40231,-6.85339 1.34974,-0.791 1.88261,-0.88195 5.5215,-0.9427 3.99265,-0.0668 4.06019,-0.0544 7.78618,1.38705 2.06724,0.79986 3.98925,1.53969 4.27114,1.64421 0.82506,0.30565 3.52837,0.37162 4.27114,0.10416 3.08895,-1.11226 3.61698,-1.49498 5.14244,-3.72755 2.12025,-3.10312 2.37668,-5.21186 1.00857,-8.29407 -1.62525,-3.6615 -4.22431,-6.85891 -7.01737,-8.63282 -0.66444,-0.422 -2.97086,-1.339 -5.12537,-2.0379 -3.47087,-1.12583 -4.43388,-1.29153 -8.45,-1.45347 -7.06949,-0.28517 -14.92655,1.01993 -19.28329,3.20292 -0.50748,0.25433 -1.1924,0.46236 -1.52206,0.46236 -0.32965,0 -2.0671,-1.5275 -3.86099,-3.39447 -5.88167,-6.12132 -12.27204,-8.8682 -17.90471,-7.69629 -2.37965,0.49502 -4.97444,1.92917 -5.69249,3.14616 -0.66829,1.13265 -0.67766,1.27847 -0.17867,2.78079 0.3312,0.99706 0.81164,1.71047 1.29477,1.92242 0.71876,0.31537 0.76032,0.50894 0.64616,3.01028 -0.13097,2.86984 0.2319,5.86895 1.49558,12.36117 0.43896,2.25513 0.89515,5.70592 1.01378,7.66841 0.11862,1.96241 0.43419,4.51035 0.70126,5.66194 0.5442,2.34645 1.19759,8.75135 1.34158,13.15065 0.0523,1.59746 0.27122,3.3687 0.48651,3.93615 0.2153,0.56745 0.44461,2.02817 0.50958,3.24603 0.11506,2.15664 0.51541,3.67892 1.44591,5.49791 0.25088,0.49044 0.38133,0.96651 0.28988,1.05796 -0.0915,0.0915 0.23407,1.074 0.72335,2.1835 0.8638,1.95871 2.33395,3.52925 4.23145,4.52051 2.91842,1.52452 8.80841,1.72028 12.86335,0.42751 z"
       id="path4797"
       inkscape:connector-curvature="0" />
    <path
       style="fill:#34d24e;stroke:#000000;stroke-width:5.30500031;stroke-miterlimit:3.5999999;stroke-dasharray:none;stroke-opacity:1;fill-opacity:1"
       d="m 497.17303,607.07694 c -2.56457,-0.57035 -4.96475,-1.68645 -6.48355,-3.01493 -0.69797,-0.61049 -2.75777,-2.34006 -4.57729,-3.84354 -3.08479,-2.54887 -6.8608,-6.80736 -8.71058,-9.8236 -0.43217,-0.7047 -0.86975,-1.2813 -0.97237,-1.2813 -0.64511,0 -5.27771,3.93658 -8.43034,7.16367 -7.17508,7.3447 -11.2561,9.08429 -21.22531,9.04792 -6.82835,-0.0247 -9.41725,-0.7489 -11.98106,-3.3507 -1.57027,-1.59347 -4.21349,-5.71297 -4.37593,-6.81992 -0.0362,-0.24584 -0.36834,-0.84225 -0.73829,-1.32521 -0.36995,-0.48297 -0.86202,-1.16495 -1.09352,-1.5156 -0.23146,-0.35064 -0.78995,-1.19427 -1.24109,-1.87473 -1.1053,-1.66715 -4.31764,-8.36056 -4.31764,-8.99646 0,-0.27966 -0.40231,-1.70489 -0.89403,-3.16713 -0.49173,-1.46225 -0.96569,-3.35056 -1.05323,-4.19629 -0.0876,-0.84566 -0.37019,-1.77261 -0.62807,-2.05989 -0.25783,-0.28721 -0.45817,-0.82541 -0.44518,-1.19587 0.013,-0.37053 -0.28316,-1.84977 -0.65814,-3.28726 -0.37497,-1.4375 -0.60513,-3.01443 -0.51151,-3.50429 0.0937,-0.48993 0.0144,-1.08206 -0.1761,-1.31584 -0.39896,-0.48964 -0.68055,-2.03217 -1.07568,-5.89225 -0.1539,-1.5034 -0.36947,-2.96413 -0.47902,-3.24604 -0.10955,-0.28191 -0.27075,-1.2045 -0.35823,-2.05016 -0.35108,-3.39418 -1.44969,-9.0972 -2.27088,-11.78834 -0.17204,-0.56375 -0.7158,-2.35712 -1.20832,-3.98522 l -0.89554,-2.9602 1.99548,-2.03522 c 1.09751,-1.11936 2.34492,-2.14365 2.77203,-2.27611 0.70177,-0.21768 5.33114,1.06072 6.44618,1.78016 0.92178,0.59474 5.38437,6.20689 6.17692,7.76814 0.47703,0.93965 1.90452,3.4767 3.17223,5.63792 1.26771,2.16122 2.71948,4.85199 3.22617,5.97956 0.50673,1.12757 1.40422,3.12649 1.99449,4.44198 1.39513,3.10929 2.42037,4.45627 4.17403,5.48404 3.58584,2.10141 6.957,0.238 11.15782,-6.1674 1.91111,-2.91405 3.67677,-6.36556 5.24393,-10.25076 2.64032,-6.54563 6.19114,-11.99999 8.97516,-13.78646 3.19752,-2.05184 7.76989,-2.67373 9.94975,-1.35331 3.11242,1.88541 4.73608,3.63145 10.85555,11.6741 3.34183,4.39204 7.71555,15.89013 10.35163,27.21321 0.59063,2.53705 1.31915,5.38163 1.61888,6.32129 0.70467,2.20897 3.73441,8.56205 6.33191,13.27759 3.53686,6.42086 4.33107,9.85242 3.16779,13.68717 -0.6156,2.02926 -2.26463,4.67555 -3.62906,5.82358 -1.84145,1.5495 -5.23002,1.94209 -9.17999,1.0637 z"
       id="path4789"
       inkscape:connector-curvature="0" />
    <path
       style="fill:#34d24e;stroke:#000000;stroke-width:5.30500031;stroke-miterlimit:3.5999999;stroke-dasharray:none;stroke-opacity:1;fill-opacity:1"
       d="m 504.79668,604.48908 c 2.70081,-2.46838 3.93508,-5.93151 3.30259,-9.26646 -0.35691,-1.88221 -1.8966,-5.53979 -3.4347,-8.15922 -1.76698,-3.00934 -5.7526,-10.92417 -6.27332,-12.45791 -0.29112,-0.85735 -0.59123,-2.05692 -0.66695,-2.66567 -0.0757,-0.60867 -0.44603,-2.33686 -0.82298,-3.84026 -0.37695,-1.50348 -0.94225,-3.88672 -1.2562,-5.2962 -1.01837,-4.57161 -3.27104,-10.7343 -5.92126,-16.19882 -1.74604,-3.60024 -2.53775,-4.79241 -6.96699,-10.49115 -4.50297,-5.79368 -6.15769,-6.91581 -9.50221,-6.44373 -4.72179,0.66645 -6.83864,2.70377 -10.99839,10.58507 -0.84397,1.59899 -1.81257,3.75164 -2.15246,4.78362 -0.51729,1.57069 -2.30081,5.12353 -4.02943,8.02676 -2.498,4.19541 -3.29977,5.33336 -4.65187,6.6021 -3.01981,2.83369 -5.93969,3.70156 -8.8346,2.62589 -3.03504,-1.12771 -4.60887,-3.235 -7.27912,-9.7463 -0.80792,-1.97004 -1.74942,-3.99008 -2.09217,-4.48894 -0.34278,-0.49879 -0.62321,-0.99554 -0.62321,-1.10384 0,-0.10829 -0.51448,-1.00715 -1.14333,-1.99739 -0.62882,-0.99032 -1.867,-3.20837 -2.75154,-4.92908 -2.08062,-4.04757 -5.40036,-7.60643 -7.86891,-8.43576 -2.78768,-0.93653 -3.73676,-0.78077 -4.90292,0.80501 -0.86468,1.17577 -0.97238,1.55233 -0.75733,2.6481 0.13788,0.70253 0.72743,3.58376 1.31012,6.40272 1.07756,5.21302 1.79046,9.43929 2.42085,14.35102 0.68184,5.31304 1.36337,9.27989 2.40687,14.00936 2.03648,9.22996 3.81036,13.84453 7.74969,20.15979 0.9378,1.5034 2.37369,3.96359 3.19081,5.46706 2.31007,4.25029 3.79848,5.84014 6.80957,7.27357 2.58615,1.23107 2.59978,1.23339 7.37461,1.24871 6.2876,0.0203 8.35793,-0.50111 13.03363,-3.28182 1.99154,-1.1844 4.11722,-2.96638 7.47528,-6.2667 2.5808,-2.5364 4.85015,-4.61168 5.043,-4.61168 0.19279,0 1.17851,-0.78302 2.19043,-1.74002 1.18482,-1.1206 2.02762,-1.66801 2.36737,-1.53766 0.29014,0.11134 0.82096,0.20244 1.17955,0.20244 0.46962,0 0.92636,0.60497 1.63252,2.16237 1.55245,3.42394 3.15916,5.67087 6.06343,8.47974 7.20569,6.96887 10.30523,8.76202 15.2307,8.81145 2.26921,0.0225 2.28682,0.0152 4.14887,-1.68617 z"
       id="path4787"
       inkscape:connector-curvature="0" />
    <path
       style="fill:#34d24e;stroke:#000000;stroke-width:5.30500031;stroke-miterlimit:3.5999999;stroke-dasharray:none;stroke-opacity:1;fill-opacity:1"
       d="m 248.08022,601.65394 c -3.462,-1.26294 -5.60053,-2.47485 -6.82191,-3.86589 -1.45566,-1.65793 -1.90639,-2.79508 -2.39609,-6.04518 -0.3185,-2.11396 -0.31278,-2.77425 0.0277,-3.18441 0.2362,-0.2846 0.47889,-1.37537 0.53931,-2.42397 0.0604,-1.04852 0.25649,-2.46018 0.4357,-3.13687 0.59195,-2.23525 1.34453,-6.27969 2.23176,-11.99368 1.74543,-11.24107 2.91574,-16.6399 4.62932,-21.35573 0.75897,-2.0887 1.89027,-5.78751 2.19464,-7.1755 0.12364,-0.56375 0.50291,-1.64008 0.84283,-2.39181 1.5247,-3.37182 1.73371,-3.88535 1.73371,-4.25944 0,-0.70085 1.45805,-3.91706 2.10651,-4.64658 0.34486,-0.38796 0.62659,-0.84922 0.62606,-1.02509 -7.2e-4,-0.29519 0.84674,-2.19337 1.8974,-4.24912 0.24012,-0.46983 0.76725,-1.49985 1.17141,-2.28896 1.06904,-2.08726 5.30667,-5.90865 8.04979,-7.25912 4.36107,-2.14692 9.98057,-2.21595 13.75431,-0.16883 3.51586,1.90718 8.61376,6.18011 8.61376,7.21978 0,0.47883 4.03398,6.28811 4.62941,6.6667 0.2077,0.1321 0.66374,0.9009 1.01344,1.70852 0.3497,0.80756 0.81376,1.69894 1.03124,1.98085 0.21749,0.28184 0.65448,1.18056 0.97112,1.99697 0.31662,0.81648 1.07972,2.2772 1.69577,3.2461 0.61605,0.96883 1.37317,2.40045 1.68251,3.18122 0.5101,1.28754 0.51189,1.41224 0.0193,1.33995 -0.69742,-0.10242 -1.77352,-2.16935 -1.55815,-2.99287 0.11695,-0.44725 0.0207,-0.57572 -0.33038,-0.44101 -0.33909,0.13014 -0.70039,-0.27262 -1.14495,-1.27622 -0.35722,-0.80654 -1.16931,-2.34899 -1.80462,-3.42771 -0.63531,-1.07865 -1.06601,-2.19344 -0.95712,-2.47724 0.1165,-0.30354 0.008,-0.51599 -0.2645,-0.51599 -0.47868,0 -1.59026,-1.46043 -1.70463,-2.23968 -0.0358,-0.24373 -0.38213,-0.72372 -0.76967,-1.06652 -0.38754,-0.34274 -1.78553,-2.08544 -3.10662,-3.87264 -4.24376,-5.74099 -9.64764,-8.88461 -15.35395,-8.93201 -2.58591,-0.0211 -3.11181,0.0901 -5.16652,1.09593 -1.54278,0.75522 -3.06991,1.90776 -4.69054,3.53999 -2.10378,2.11876 -2.71038,3.04759 -4.87159,7.45945 -3.07435,6.27592 -4.47753,9.79167 -7.53483,18.87907 -2.57156,7.64359 -3.55119,11.19121 -4.15155,15.03438 -0.2055,1.31556 -0.44135,2.77628 -0.5241,3.24611 -0.0828,0.46982 -0.31503,2.08427 -0.51616,3.58775 -0.52405,3.9172 -1.56712,9.85997 -2.21902,12.64256 -0.48486,2.06962 -0.80752,7.47375 -0.57122,9.56732 0.0424,0.37591 -0.0128,1.22157 -0.12269,1.87931 -0.17223,1.03074 -0.043,1.35577 0.93558,2.35341 1.86351,1.89963 3.0504,2.6317 5.74824,3.54537 4.41051,1.49367 6.96985,1.44976 10.93412,-0.18777 2.5774,-1.06464 4.5359,-2.39682 7.31231,-4.97401 2.5477,-2.36488 5.54392,-3.98166 6.89881,-3.72268 0.46178,0.0883 0.92188,0.0276 1.02245,-0.13537 0.33489,-0.54183 2.82139,-0.30506 3.98095,0.3791 0.62917,0.37126 2.06025,1.94158 3.18017,3.48969 3.95204,5.46314 5.40049,6.38545 9.07176,5.77648 1.01664,-0.16861 3.23228,-0.49102 4.92365,-0.71639 2.87831,-0.38345 7.54631,-1.89948 8.72055,-2.83217 0.28597,-0.22711 1.39437,-1.48932 2.4631,-2.8048 1.06873,-1.31549 2.24122,-2.70109 2.60555,-3.0791 0.36432,-0.37794 0.82772,-1.30118 1.02977,-2.05154 0.37242,-1.38306 0.18623,-2.60731 -1.4802,-9.73295 -0.28568,-1.22149 -0.91183,-4.45047 -1.39145,-7.17551 -0.9177,-5.21396 -1.62972,-8.28072 -2.28253,-9.83101 -0.2159,-0.51272 -0.43337,-1.16284 -0.48326,-1.44475 -0.16704,-0.94401 -2.08223,-6.28333 -3.6208,-10.09449 -0.83779,-2.0752 -1.53514,-4.30479 -1.54966,-4.95448 -0.0221,-0.99264 0.2759,-0.55351 1.86544,2.74805 1.04052,2.16121 2.10712,4.34217 2.37022,4.84655 1.18431,2.27045 4.07336,12.50727 4.72242,16.7331 0.63623,4.14228 1.03834,6.14461 1.73913,8.66003 1.53295,5.50248 2.00624,10.57781 1.13909,12.21513 -0.90588,1.71041 -5.49064,7.30782 -6.53236,7.97515 -2.78177,1.78211 -8.1491,3.0661 -14.29343,3.4195 -4.88627,0.28104 -5.80958,-0.0617 -7.91138,-2.93748 -4.85084,-6.63687 -5.35722,-7.02679 -8.66555,-6.67251 -2.41334,0.25846 -4.33906,1.33653 -6.9725,3.90341 -2.31363,2.25514 -4.8856,3.96918 -7.80426,5.20097 -3.62615,1.53041 -7.727,1.73233 -10.99211,0.54118 z"
       id="path4785"
       inkscape:connector-curvature="0" />
    <path
       style="fill:#34d24e;stroke:#000000;stroke-width:5.30500031;stroke-miterlimit:3.5999999;stroke-dasharray:none;stroke-opacity:1;fill-opacity:1"
       d="m 273.52003,566.65335 c -0.5549,-0.28206 -1.50862,-0.98632 -2.1194,-1.56502 -1.38528,-1.31266 -1.45522,-2.72613 -0.26176,-5.28967 0.73736,-1.58382 1.07719,-1.9164 2.73329,-2.67452 1.83063,-0.83811 2.47766,-0.87477 4.6658,-0.26398 0.30787,0.0859 0.97872,0.78933 1.49076,1.56306 0.77189,1.1664 0.90463,1.68123 0.77672,3.01232 -0.23475,2.44313 -1.84419,4.16747 -4.89357,5.24285 -1.21007,0.42679 -1.50905,0.42366 -2.39184,-0.0247 z"
       id="path4783"
       inkscape:connector-curvature="0" />
    <path
       style="fill:#34d24e;stroke:#000000;stroke-width:5.30500031;stroke-miterlimit:3.5999999;stroke-dasharray:none;stroke-opacity:1;fill-opacity:1"
       d="m 277.21454,563.75898 c 2.9543,-2.08827 1.70599,-6.16915 -1.72023,-5.62362 -1.5235,0.2425 -2.62139,1.38872 -3.20906,3.35019 -0.41251,1.37682 -0.39789,1.42712 0.69981,2.40792 0.9313,0.83209 1.30427,0.96208 2.20289,0.76749 0.59498,-0.12876 1.50694,-0.53464 2.02659,-0.90198 z"
       id="path4781"
       inkscape:connector-curvature="0" />
    <path
       style="fill:#34d24e;stroke:#000000;stroke-width:5.30500031;stroke-miterlimit:3.5999999;stroke-dasharray:none;stroke-opacity:1;fill-opacity:1"
       d="m 339.30565,489.65914 c -4.85405,-0.51592 -12.80549,-3.21853 -15.14543,-5.14763 -1.65575,-1.36506 -3.08435,-4.38521 -3.77718,-7.98516 -1.43512,-7.45691 -1.91911,-10.22542 -2.41175,-13.79539 -0.29496,-2.13749 -0.77464,-4.98207 -1.06594,-6.32129 -0.29131,-1.33922 -0.66503,-3.43663 -0.83051,-4.66095 -0.16547,-1.22433 -0.45457,-2.91572 -0.64245,-3.75862 -0.18788,-0.8429 -0.51425,-2.83957 -0.72527,-4.43697 -0.21103,-1.59739 -0.52226,-3.90385 -0.69164,-5.12534 -0.30575,-2.20513 -1.49237,-11.93111 -1.85512,-15.2053 -0.18078,-1.63173 -0.1891,-2.52392 -0.0669,-7.17551 0.0504,-1.91653 0.10962,-2.05663 0.90965,-2.15015 l 0.85579,-0.10002 -0.001,6.93385 c -10e-4,6.74146 0.29414,9.99591 1.70095,18.72222 0.25753,1.59739 0.72378,4.5957 1.03613,6.66293 0.31235,2.06722 0.99995,6.14193 1.52799,9.05481 0.52805,2.91295 1.13845,6.68006 1.35646,8.37145 0.218,1.69139 0.61089,3.99777 0.87309,5.12534 0.2622,1.12764 0.80172,3.71441 1.19893,5.74853 1.1646,5.96396 2.38019,8.22091 5.23371,9.7172 4.00705,2.10112 8.71521,3.64923 12.18546,4.00677 5.3272,0.5488 8.21051,0.7418 9.25904,0.61971 2.3,-0.26783 6.97835,-1.21046 7.31298,-1.4735 0.18793,-0.1477 2.03306,-0.67414 4.1003,-1.16981 2.06723,-0.49566 4.68116,-1.19427 5.80875,-1.55246 1.12757,-0.3582 3.58775,-1.05564 5.46705,-1.54986 1.87931,-0.49421 3.89207,-1.11385 4.47281,-1.37682 0.58073,-0.26304 1.8877,-0.69933 2.90437,-0.96955 1.01667,-0.27023 3.00169,-0.97362 4.41117,-1.56314 1.40947,-0.58952 3.25461,-1.30431 4.10029,-1.5884 1.27481,-0.4283 7.40246,-3.3806 9.91826,-4.77868 3.33174,-1.85151 3.27914,-4.43922 -0.15392,-7.57174 -3.96451,-3.61736 -6.64224,-4.38921 -16.93986,-4.88298 -11.92523,-0.57188 -19.27091,-1.47045 -26.55708,-3.24872 -5.89565,-1.43888 -6.34414,-1.63297 -7.37949,-3.19385 -1.91815,-2.89183 -2.52237,-4.14207 -4.72382,-9.7744 -0.36726,-0.93965 -0.87617,-2.16978 -1.1309,-2.73353 -0.25473,-0.56382 -0.85203,-1.95733 -1.32733,-3.09666 -0.4753,-1.1394 -1.35394,-2.98452 -1.95251,-4.10033 -0.59858,-1.11581 -1.75187,-3.29778 -2.56285,-4.8488 -0.81098,-1.55109 -1.79214,-3.26621 -2.18033,-3.81138 -0.38805,-0.54517 -0.70568,-1.09752 -0.70568,-1.22751 0,-0.63713 -4.03155,-6.23774 -6.19172,-8.60147 -3.19446,-3.49553 -6.2536,-5.23693 -9.19979,-5.23693 -2.71947,0 -3.62174,0.78677 -4.30777,3.75629 -0.35001,1.51512 -0.39499,2.24515 -0.14347,2.32899 0.2015,0.0668 0.36637,0.33598 0.36637,0.59742 0,0.54176 -1.99665,1.68682 -2.33817,1.34089 -0.12348,-0.12506 -0.1967,-1.38168 -0.1627,-2.79246 0.0819,-3.39747 1.26141,-5.95863 3.1996,-6.94741 1.98181,-1.01105 5.55629,-0.93104 7.98236,0.17867 1.02715,0.46983 1.99684,0.85423 2.15486,0.85423 0.52622,0 4.74977,4.57951 6.4602,7.0047 1.68532,2.38948 4.57207,6.92299 4.57207,7.18015 0,0.0749 0.48258,0.9501 1.0724,1.94499 1.82008,3.07017 5.95125,11.5367 7.43139,15.23013 2.72152,6.79111 5.3219,11.40387 6.88416,12.21179 2.21938,1.14768 8.68735,2.60651 15.19341,3.42691 3.7586,0.47396 7.04432,0.93544 7.30159,1.02559 0.25728,0.0901 2.02551,0.16919 3.92945,0.17565 5.54739,0.0189 12.92946,0.90634 16.01226,1.92525 3.13888,1.03742 4.66532,1.98564 7.26712,4.51442 2.23521,2.17246 2.90475,3.40637 2.90475,5.3531 0,1.28921 -0.16855,1.6056 -1.45218,2.72627 -4.09493,3.57484 -27.00651,12.24336 -38.3549,14.51135 -1.12758,0.22537 -2.81895,0.70681 -3.7586,1.06994 -4.69161,1.81282 -11.40316,2.40125 -18.62826,1.63318 z"
       id="path4779"
       inkscape:connector-curvature="0" />
    <path
       style="fill:#000000;stroke:#000000;stroke-width:0.2;stroke-miterlimit:3.5999999;stroke-dasharray:none;stroke-opacity:1"
       d="m 649.90896,326.71494 c 0,-0.19901 0.15375,-0.36185 0.34168,-0.36185 0.18794,0 0.34169,0.0678 0.34169,0.15068 0,0.0829 -0.15375,0.24571 -0.34169,0.36186 -0.18793,0.11614 -0.34168,0.0483 -0.34168,-0.15069 z"
       id="path4773"
       inkscape:connector-curvature="0" />
  </g>
</svg>
